<?xml version="1.0" encoding="UTF-8" standalone="no"?>
<!-- Created with Inkscape by Tiger -->

<svg
   xmlns:dc="http://purl.org/dc/elements/1.1/"
   xmlns:cc="http://creativecommons.org/ns#"
   xmlns:rdf="http://www.w3.org/1999/02/22-rdf-syntax-ns#"
   xmlns:svg="http://www.w3.org/2000/svg"
   xmlns="http://www.w3.org/2000/svg"
   version="1.1"
   width="354.33069"
   height="354.33069"
   viewBox="0 0 354.33069 354.33068"
   id="logo"
   xml:space="preserve">
   <title    id="titre">ZF Friedrichshafen</title>
   <desc     id="description">English: Logo of ZF
Deutsch: offizielles ZF Logo
Crée par Victor GASIA 2012 à partir d'un travail original de Wikimedia</desc>
   <metadata id="metadata"></metadata>
   <defs     id="defs"></defs>
   <rect
     width="354.33069"
     height="354.33069"
     x="0"
     y="-5.0000099e-06"
     id="rect"
     style="color:#000000;fill:#036eb8;fill-opacity:1;fill-rule:nonzero;stroke:none;stroke-width:10.60000038;marker:none;visibility:visible;display:inline;overflow:visible;enable-background:accumulate" /><path
     d="m 345.05596,176.93348 a 167.65878,167.65878 0 1 1 -335.3175465,0 167.65878,167.65878 0 1 1 335.3175465,0 z"
     id="circle"
     style="fill:#ffffff" /><path
     d="m 188.01034,83.7601 h 54.55011 53.95011 c 0,0 -0.88001,-1.050002 -1.83001,-2.260005 -0.95,-1.220002 -1.99,-2.530005 -2.35,-2.960006 -13.88003,-16.090032 -31.08006,-29.240058 -50.5501,-38.370077 -19.45004,-9.120018 -41.16009,-14.220028 -64.02013,-14.220028 -23.95005,0 -46.8301,5.760012 -67.20014,15.870032 C 90.200143,51.940036 72.360108,66.350065 58.49008,83.7601 h 62.68013 62.03012 L 116.0602,250.13043 h 95.78019 97.92019 c 0.42,-0.78 1.1,-1.74 1.79001,-2.7 0.67,-0.96 1.35,-1.93001 1.75,-2.74001 5.08001,-10.16002 9.03002,-20.97004 11.74002,-32.27006 2.69001,-11.29003 4.12001,-23.08005 4.12001,-35.20007 0,-13.22003 -1.7,-26.04006 -4.90001,-38.26008 -3.21,-12.22002 -7.90001,-23.89005 -13.89003,-34.71007 h -38.27007 -38.88008 v 25.97005 25.85005 h 21.10004 19.86004 v 10.31002 10.18003 h -19.86004 -21.10004 v 29.30005 29.15006 H 211.24039 188.02034 V 159.45025 83.7601 z"
     id="path1"
     style="fill:#036eb8" /><path
     d="M 59.050081,270.57047 H 178.04032 297.05056 c -13.88003,17.65004 -31.65007,32.11007 -51.97011,42.17009 -20.32004,10.05002 -43.22008,15.70003 -67.37013,15.70003 -41.73009,0 -79.530161,-16.94003 -106.910215,-44.32009 C 43.42005,256.75045 26.480016,218.94037 26.480016,177.21029 c 0,-13.03003 1.780004,-25.92006 5.00001,-38.23008 3.220006,-12.32002 7.910016,-24.04005 13.710027,-34.73007 H 86.760137 126.23022 L 59.050081,270.57047 z"
     id="path2"
     style="fill:#036eb8" /></svg>
